<svg viewBox="0 0 512 512" xmlns="http://www.w3.org/2000/svg">
  <style>
    .icon-outline { fill: #3399FF; }
    .icon-fill    { fill: #ffffff; }
  </style>
  <g transform="matrix(0.1 0 0 -0.1 0 0)">
    <!-- outer contour -->
    <path
      class="icon-outline"
      d="m2410,-132c-85,-50 -195,-114 -245,-142c-49,-29 -471,-273 -938,-542l-847,-488l2,-1265l3,-1265l1085,-628c597,-345 1090,-627 1096,-627c7,-1 502,282 1100,628l1089,628l3,1261l2,1262l-37,24c-21,13 -343,200 -716,416c-1070,617 -1395,803 -1422,817c-17,8 -47,-5 -175,-79z"
    />
    <!-- letter C, centered -->
    <path
      class="icon-fill"
      d="m3054,-1736l466,-269l0,-152l0,-153l-262,0l-262,0l-211,120c-116,66 -215,120 -219,120c-5,0 -103,-53 -217,-117l-209,-118l0,-245l0,-245l211,-120c117,-66 216,-119 221,-117c5,1 103,56 218,122l209,120l261,0l261,0l-3,-157l-3,-157l-473,-272l-473,-273l-474,272l-474,272l-1,551l0,551l468,271c257,149 475,269 484,267c9,-1 226,-124 482,-271z"
    />
  </g>
</svg>